<?xml version="1.0" standalone="no"?>
<!DOCTYPE svg PUBLIC "-//W3C//DTD SVG 20010904//EN"
 "http://www.w3.org/TR/2001/REC-SVG-20010904/DTD/svg10.dtd">
<svg version="1.0" xmlns="http://www.w3.org/2000/svg"
 width="250.000000pt" height="100.000000pt" viewBox="0 0 250.000000 100.000000"
 preserveAspectRatio="xMidYMid meet">

<g transform="translate(0.000000,100.000000) scale(0.100000,-0.100000)"
fill="#000000" stroke="none">
<path d="M211 736 l-34 -64 32 -56 c18 -31 36 -56 40 -56 4 0 22 27 41 60 l34
60 197 0 197 0 31 55 c17 30 31 57 31 60 0 3 -120 5 -267 5 l-268 0 -34 -64z"/>
<path d="M850 640 l0 -30 85 0 85 0 0 30 0 30 -85 0 -85 0 0 -30z"/>
<path d="M1060 520 l0 -150 35 0 35 0 0 150 0 150 -35 0 -35 0 0 -150z"/>
<path d="M1160 640 c0 -28 3 -30 35 -30 l35 0 0 -120 0 -120 35 0 35 0 0 120
0 120 35 0 c32 0 35 2 35 30 l0 30 -105 0 -105 0 0 -30z"/>
<path d="M1400 520 l0 -150 30 0 30 0 0 91 c0 54 4 89 10 87 5 -1 34 -41 63
-88 50 -79 57 -85 91 -88 l36 -3 0 150 0 151 -35 0 -35 0 0 -97 0 -97 -62 97
c-58 91 -64 97 -95 97 l-33 0 0 -150z"/>
<path d="M1710 520 l0 -150 85 0 c84 0 85 0 85 24 0 23 -4 25 -52 28 -52 3
-53 4 -56 36 l-3 32 50 0 c50 0 51 1 51 30 0 29 -1 30 -50 30 -49 0 -50 1 -50
30 0 30 1 30 55 30 54 0 55 0 55 30 l0 30 -85 0 -85 0 0 -150z"/>
<path d="M1966 647 c-37 -37 -36 -87 3 -119 16 -12 43 -31 60 -40 66 -36 18
-88 -51 -54 -31 16 -33 16 -50 -6 -21 -28 -11 -41 43 -57 77 -23 147 6 162 68
10 40 -17 76 -78 104 -56 27 -67 45 -40 67 12 10 24 11 51 2 32 -10 36 -9 46
14 6 13 8 27 4 31 -3 4 -33 9 -66 11 -53 4 -61 2 -84 -21z"/>
<path d="M2216 647 c-37 -37 -36 -87 3 -119 16 -12 43 -31 60 -40 66 -36 18
-88 -51 -54 -31 16 -33 16 -50 -6 -21 -28 -11 -41 43 -57 77 -23 147 6 162 68
10 40 -17 76 -78 104 -56 27 -67 45 -40 67 12 10 24 11 51 2 32 -10 36 -9 46
14 6 13 8 27 4 31 -3 4 -33 9 -66 11 -53 4 -61 2 -84 -21z"/>
<path d="M382 572 c2 -4 17 -31 33 -60 l30 -52 75 0 75 0 33 60 33 60 -141 0
c-78 0 -140 -3 -138 -8z"/>
<path d="M850 455 l0 -85 35 0 35 0 0 60 0 60 50 0 c47 0 50 2 50 25 0 25 -1
25 -85 25 l-85 0 0 -85z"/>
<path d="M345 388 c19 -35 50 -89 67 -120 18 -32 35 -58 38 -58 3 0 20 26 37
58 l32 58 -35 62 -35 62 -70 0 -70 0 36 -62z"/>
</g>
</svg>
